<svg width="164" height="88" viewBox="0 0 164 88" fill="none" xmlns="http://www.w3.org/2000/svg">
<g opacity="0.5">
<path opacity="0.5" d="M10.5308 75.9478C3.85351 68.5514 0.514832 57.8535 0.514832 43.8539C0.514832 30.0945 3.87774 19.5158 10.6034 12.1187C17.3291 4.72163 26.9821 1.02363 39.5625 1.02441C52.141 1.02441 61.794 4.72371 68.5215 12.1216C75.2491 19.5195 78.6119 30.0976 78.61 43.8562C78.61 57.8558 75.2714 68.5537 68.5941 75.95C61.9168 83.3464 52.2396 87.0447 39.5625 87.0455C26.8806 87.044 17.2033 83.3449 10.5308 75.9478ZM49.5783 64.2509C51.6106 60.118 52.6267 53.3176 52.6267 43.8493C52.6267 34.5433 51.6106 27.8422 49.5783 23.7459C47.5461 19.6497 44.2075 17.6011 39.5625 17.6011C34.9136 17.6011 31.5749 19.6497 29.5465 23.7459C27.5181 27.8422 26.5019 34.5433 26.4982 43.8493C26.4982 53.3152 27.5143 60.1157 29.5465 64.2509C31.5787 68.3861 34.9174 70.4542 39.5625 70.4557C44.2037 70.4588 47.5405 68.3923 49.5727 64.2555L49.5783 64.2509Z" stroke="#707070" stroke-miterlimit="10"/>
<path opacity="0.5" d="M158.513 50.0573C161.83 53.8344 163.539 58.4055 163.375 63.0621C163.514 66.4765 162.609 69.8648 160.745 72.9182C158.88 75.9715 156.115 78.5924 152.702 80.5417C145.586 84.7962 135.885 86.9239 123.598 86.9247C116.523 86.9453 109.482 86.1213 102.695 84.478C96.8957 83.2127 91.4655 81.0013 86.7275 77.9756L95.0015 62.467C104.096 67.4779 113.193 69.9827 122.291 69.982C128.098 69.982 132.235 69.2662 134.702 67.8345C137.17 66.4028 138.403 64.0165 138.402 60.6759C138.402 57.5739 137.193 55.3469 134.773 53.9947C132.354 52.6426 128.387 51.9666 122.871 51.9666H107.054V35.0261H120.263C125.585 35.0261 129.456 34.3895 131.876 33.1168C133.085 32.4602 134.058 31.5503 134.696 30.481C135.334 29.4118 135.613 28.2223 135.505 27.0348C135.592 25.7544 135.33 24.4739 134.74 23.287C134.149 22.1001 133.243 21.0363 132.089 20.1732C129.343 18.4164 125.909 17.5469 122.436 17.7287C118.026 17.7797 113.658 18.4445 109.517 19.6957C104.875 21.0472 100.48 22.9139 96.4531 25.2437L88.1791 9.73509C92.9625 6.73341 98.4102 4.52456 104.219 3.23157C110.788 1.60877 117.61 0.784406 124.469 0.785392C131.001 0.6743 137.493 1.6485 143.557 3.64907C148.639 5.31096 153.044 8.1243 156.258 11.7621C159.281 15.3257 160.856 19.5833 160.758 23.9267C160.881 28.0444 159.434 32.0907 156.621 35.4996C153.741 38.8377 149.651 41.3431 144.936 42.6582C150.348 43.7944 155.133 46.402 158.513 50.0573V50.0573Z" stroke="#707070" stroke-miterlimit="10"/>
</g>
</svg>
