<svg width="168" height="88" viewBox="0 0 168 88" fill="none" xmlns="http://www.w3.org/2000/svg">
<g opacity="0.5">
<path opacity="0.5" d="M10.5308 76.0753C3.85351 68.6797 0.514832 57.9822 0.514832 43.9826C0.514832 30.2224 3.87774 19.6439 10.6034 12.2468C17.3291 4.84973 26.9821 1.15137 39.5625 1.15137C52.141 1.15137 61.794 4.84973 68.5215 12.2468C75.2491 19.6439 78.6119 30.2224 78.61 43.9826C78.61 57.983 75.2714 68.6805 68.5941 76.0753C61.9168 83.47 52.2396 87.1693 39.5625 87.1725C26.8806 87.1725 17.2033 83.4732 10.5308 76.0753ZM49.5783 64.3784C51.6106 60.2455 52.6267 53.4455 52.6267 43.978C52.6267 34.672 51.6106 27.9705 49.5783 23.8734C47.5461 19.7764 44.2075 17.7284 39.5625 17.7292C34.9136 17.7292 31.5749 19.7772 29.5465 23.8734C27.5181 27.9697 26.5019 34.6712 26.4982 43.978C26.4982 53.4447 27.5143 60.2447 29.5465 64.3784C31.5787 68.5121 34.9174 70.5807 39.5625 70.5838C44.2037 70.5869 47.5405 68.5198 49.5727 64.383L49.5783 64.3784Z" stroke="#707070" stroke-miterlimit="10"/>
<path opacity="0.5" d="M145.521 68.6796H167.437V86.0987H96.8928V68.6796H118.809V25.8478L101.535 33.9597L91.9547 18.2123L126.647 1.98633H145.518L145.521 68.6796Z" stroke="#707070" stroke-miterlimit="10"/>
</g>
</svg>
