<svg width="46" height="845" viewBox="0 0 46 845" fill="none" xmlns="http://www.w3.org/2000/svg">
<path d="M23 19V825" stroke="#707070" stroke-width="2" stroke-miterlimit="10"/>
<path d="M22.7104 36.7073C34.4999 36.7073 44.0572 28.852 44.0572 19.162C44.0572 9.472 34.4999 1.6167 22.7104 1.6167C10.9209 1.6167 1.36359 9.472 1.36359 19.162C1.36359 28.852 10.9209 36.7073 22.7104 36.7073Z" fill="white" stroke="#707070" stroke-width="2" stroke-miterlimit="10"/>
<path d="M22.7104 29.4785C29.6427 29.4785 35.2623 24.8596 35.2623 19.1619C35.2623 13.4641 29.6427 8.84521 22.7104 8.84521C15.7782 8.84521 10.1585 13.4641 10.1585 19.1619C10.1585 24.8596 15.7782 29.4785 22.7104 29.4785Z" fill="url(#paint0_linear_14_3)"/>
<path d="M22.7104 843.174C34.4999 843.174 44.0572 835.318 44.0572 825.628C44.0572 815.938 34.4999 808.083 22.7104 808.083C10.9209 808.083 1.36359 815.938 1.36359 825.628C1.36359 835.318 10.9209 843.174 22.7104 843.174Z" fill="white" stroke="#707070" stroke-width="2" stroke-miterlimit="10"/>
<path d="M22.7104 835.945C29.6427 835.945 35.2623 831.326 35.2623 825.629C35.2623 819.931 29.6427 815.312 22.7104 815.312C15.7782 815.312 10.1585 819.931 10.1585 825.629C10.1585 831.326 15.7782 835.945 22.7104 835.945Z" fill="url(#paint1_linear_14_3)"/>
<path d="M22.7104 604.458C34.4999 604.458 44.0572 596.602 44.0572 586.912C44.0572 577.222 34.4999 569.367 22.7104 569.367C10.9209 569.367 1.36359 577.222 1.36359 586.912C1.36359 596.602 10.9209 604.458 22.7104 604.458Z" fill="white" stroke="#707070" stroke-width="2" stroke-miterlimit="10"/>
<path d="M22.7104 597.229C29.6427 597.229 35.2623 592.611 35.2623 586.913C35.2623 581.215 29.6427 576.596 22.7104 576.596C15.7782 576.596 10.1585 581.215 10.1585 586.913C10.1585 592.611 15.7782 597.229 22.7104 597.229Z" fill="url(#paint2_linear_14_3)"/>
<path d="M22.7104 319.131C34.4999 319.131 44.0572 311.275 44.0572 301.585C44.0572 291.895 34.4999 284.04 22.7104 284.04C10.9209 284.04 1.36359 291.895 1.36359 301.585C1.36359 311.275 10.9209 319.131 22.7104 319.131Z" fill="white" stroke="#707070" stroke-width="2" stroke-miterlimit="10"/>
<path d="M22.7104 311.902C29.6427 311.902 35.2623 307.283 35.2623 301.586C35.2623 295.888 29.6427 291.269 22.7104 291.269C15.7782 291.269 10.1585 295.888 10.1585 301.586C10.1585 307.283 15.7782 311.902 22.7104 311.902Z" fill="url(#paint3_linear_14_3)"/>
<defs>
<linearGradient id="paint0_linear_14_3" x1="10.1585" y1="19.1619" x2="35.2623" y2="19.1619" gradientUnits="userSpaceOnUse">
<stop stop-color="#EF8431"/>
<stop offset="1" stop-color="#E71A86"/>
</linearGradient>
<linearGradient id="paint1_linear_14_3" x1="10.1585" y1="825.629" x2="35.2623" y2="825.629" gradientUnits="userSpaceOnUse">
<stop stop-color="#EF8431"/>
<stop offset="1" stop-color="#E71A86"/>
</linearGradient>
<linearGradient id="paint2_linear_14_3" x1="10.1585" y1="586.913" x2="35.2623" y2="586.913" gradientUnits="userSpaceOnUse">
<stop stop-color="#EF8431"/>
<stop offset="1" stop-color="#E71A86"/>
</linearGradient>
<linearGradient id="paint3_linear_14_3" x1="10.1585" y1="301.586" x2="35.2623" y2="301.586" gradientUnits="userSpaceOnUse">
<stop stop-color="#EF8431"/>
<stop offset="1" stop-color="#E71A86"/>
</linearGradient>
</defs>
</svg>
