<svg width="165" height="89" viewBox="0 0 165 89" fill="none" xmlns="http://www.w3.org/2000/svg">
<g opacity="0.5">
<path opacity="0.5" d="M11.0617 76.6188C4.38439 69.2225 1.04572 58.5249 1.04572 44.5261C1.04572 30.7659 4.40853 20.1875 11.1342 12.7904C17.8599 5.39327 27.5129 1.69434 40.0933 1.69434C52.6708 1.69434 62.3238 5.39327 69.0523 12.7904C75.7808 20.1875 79.1437 30.7659 79.1408 44.5261C79.1408 58.5257 75.8022 69.2233 69.1249 76.6188C62.4477 84.0144 52.7704 87.7131 40.0933 87.7154C27.4133 87.7115 17.7361 84.0128 11.0617 76.6188ZM50.1092 64.922C52.1405 60.7891 53.1561 53.989 53.1561 44.5215C53.1561 35.2155 52.1405 28.514 50.1092 24.417C48.078 20.32 44.7393 18.2719 40.0933 18.2727C35.4444 18.2727 32.1053 20.3207 30.0759 24.417C28.0466 28.5132 27.0309 35.2147 27.029 44.5215C27.029 53.9874 28.0447 60.7875 30.0759 64.922C32.1072 69.0564 35.4463 71.125 40.0933 71.1274C44.7364 71.1305 48.0751 69.0633 50.1092 64.9265V64.922Z" stroke="#707070" stroke-miterlimit="10"/>
<path opacity="0.5" d="M164.347 69.2221V86.6412H92.2036V70.4152L125.59 41.9006C131.977 36.4117 135.17 31.3609 135.17 26.7484C135.17 21.1823 131.154 18.3988 123.122 18.3973C118.831 18.4616 114.585 19.1269 110.566 20.3654C105.801 21.7856 101.247 23.647 96.9939 25.9134L88.7184 10.4036C93.4602 7.41804 98.8566 5.21003 104.613 3.9001C111.083 2.27874 117.81 1.45451 124.574 1.45507C131.207 1.34458 137.799 2.33931 143.953 4.37929C149.116 6.06903 153.577 8.94825 156.799 12.6705C159.839 16.3631 161.411 20.74 161.298 25.1978C161.366 29.7974 160.148 34.3485 157.74 38.5007C154.542 43.4495 150.457 47.9741 145.62 51.9235L125.007 69.2232L164.347 69.2221Z" stroke="#707070" stroke-miterlimit="10"/>
</g>
</svg>
