<svg width="845" height="88" viewBox="0 0 845 88" fill="none" xmlns="http://www.w3.org/2000/svg">
<mask id="path-1-inside-1_2_5" fill="#F1F2F2">
<path d="M30.4126 86L0.308857 2.11416H22.6784L42.9062 62.7975H37.3138L59.0884 2.11416H74.5568L95.0225 62.7975H90.263L110.967 2.11416H132.027L101.686 86H84.1947L64.7998 31.385H67.7745L47.9037 86H30.4126ZM140.824 86V2.11416H162.718V34.4786H197.343V2.11416H219.118V86H197.343V52.4457H162.718V86H140.824ZM224.25 86L263.516 2.11416H280.769L320.034 86H298.141L288.265 62.9165L296.594 68.9849H247.571L256.019 62.9165L246.143 86H224.25ZM271.964 24.9597L258.161 57.9191L254.829 52.2077H289.455L286.123 57.9191L272.202 24.9597H271.964ZM335.454 86V19.9622H308.801V2.11416H384.001V19.9622H357.348V86H335.454ZM450.121 86L420.017 2.11416H442.386L462.614 62.7975H457.022L478.796 2.11416H494.265L514.731 62.7975H509.971L530.675 2.11416H551.736L521.394 86H503.903L484.508 31.385H487.483L467.612 86H450.121ZM560.532 86V2.11416H619.788V19.0103H581.474V34.9546H617.051V51.8507H581.474V69.1038H619.788V86H560.532ZM667.667 86V2.11416H702.411C712.089 2.11416 720.339 3.77998 727.16 7.11161C733.982 10.3639 739.178 15.1234 742.748 21.3901C746.397 27.5774 748.221 35.1132 748.221 43.9976C748.221 52.882 746.397 60.4575 742.748 66.7241C739.178 72.9908 733.982 77.7899 727.16 81.1215C720.339 84.3738 712.089 86 702.411 86H667.667ZM689.561 68.2709H700.983C709.312 68.2709 715.46 66.2878 719.426 62.3216C723.472 58.276 725.495 52.168 725.495 43.9976C725.495 35.7478 723.472 29.6795 719.426 25.7926C715.381 21.8263 709.233 19.8432 700.983 19.8432H689.561V68.2709ZM801.662 87.3089C795.316 87.3089 789.525 86.2776 784.29 84.2152C779.055 82.1528 774.533 79.2177 770.725 75.4102C766.997 71.5232 764.102 66.9224 762.039 61.6077C760.056 56.2929 759.065 50.4229 759.065 43.9976C759.065 37.493 760.056 31.5833 762.039 26.2685C764.102 20.9538 766.997 16.3926 770.725 12.585C774.533 8.77743 779.055 5.88208 784.29 3.89896C789.525 1.83653 795.316 0.805306 801.662 0.805306C808.008 0.805306 813.799 1.83653 819.034 3.89896C824.27 5.88208 828.751 8.77743 832.48 12.585C836.287 16.3926 839.183 20.9538 841.166 26.2685C843.228 31.504 844.259 37.374 844.259 43.8786C844.259 50.4625 843.228 56.4119 841.166 61.7267C839.183 67.0414 836.287 71.6422 832.48 75.5291C828.751 79.3367 824.27 82.2717 819.034 84.3342C813.799 86.3173 808.008 87.3089 801.662 87.3089ZM801.662 68.9849C805.866 68.9849 809.436 67.9933 812.371 66.0102C815.306 64.0271 817.567 61.1714 819.153 57.4431C820.74 53.7149 821.533 49.233 821.533 43.9976C821.533 38.7622 820.74 34.2803 819.153 30.5521C817.646 26.8238 815.385 24.0078 812.371 22.104C809.436 20.1209 805.866 19.1293 801.662 19.1293C797.537 19.1293 793.968 20.1209 790.953 22.104C788.018 24.0078 785.758 26.8238 784.171 30.5521C782.585 34.2803 781.791 38.7622 781.791 43.9976C781.791 49.233 782.545 53.7149 784.052 57.4431C785.639 61.1714 787.939 64.0271 790.953 66.0102C793.968 67.9933 797.537 68.9849 801.662 68.9849Z"/>
</mask>
<path d="M30.4126 86L0.308857 2.11416H22.6784L42.9062 62.7975H37.3138L59.0884 2.11416H74.5568L95.0225 62.7975H90.263L110.967 2.11416H132.027L101.686 86H84.1947L64.7998 31.385H67.7745L47.9037 86H30.4126ZM140.824 86V2.11416H162.718V34.4786H197.343V2.11416H219.118V86H197.343V52.4457H162.718V86H140.824ZM224.25 86L263.516 2.11416H280.769L320.034 86H298.141L288.265 62.9165L296.594 68.9849H247.571L256.019 62.9165L246.143 86H224.25ZM271.964 24.9597L258.161 57.9191L254.829 52.2077H289.455L286.123 57.9191L272.202 24.9597H271.964ZM335.454 86V19.9622H308.801V2.11416H384.001V19.9622H357.348V86H335.454ZM450.121 86L420.017 2.11416H442.386L462.614 62.7975H457.022L478.796 2.11416H494.265L514.731 62.7975H509.971L530.675 2.11416H551.736L521.394 86H503.903L484.508 31.385H487.483L467.612 86H450.121ZM560.532 86V2.11416H619.788V19.0103H581.474V34.9546H617.051V51.8507H581.474V69.1038H619.788V86H560.532ZM667.667 86V2.11416H702.411C712.089 2.11416 720.339 3.77998 727.16 7.11161C733.982 10.3639 739.178 15.1234 742.748 21.3901C746.397 27.5774 748.221 35.1132 748.221 43.9976C748.221 52.882 746.397 60.4575 742.748 66.7241C739.178 72.9908 733.982 77.7899 727.16 81.1215C720.339 84.3738 712.089 86 702.411 86H667.667ZM689.561 68.2709H700.983C709.312 68.2709 715.46 66.2878 719.426 62.3216C723.472 58.276 725.495 52.168 725.495 43.9976C725.495 35.7478 723.472 29.6795 719.426 25.7926C715.381 21.8263 709.233 19.8432 700.983 19.8432H689.561V68.2709ZM801.662 87.3089C795.316 87.3089 789.525 86.2776 784.29 84.2152C779.055 82.1528 774.533 79.2177 770.725 75.4102C766.997 71.5232 764.102 66.9224 762.039 61.6077C760.056 56.2929 759.065 50.4229 759.065 43.9976C759.065 37.493 760.056 31.5833 762.039 26.2685C764.102 20.9538 766.997 16.3926 770.725 12.585C774.533 8.77743 779.055 5.88208 784.29 3.89896C789.525 1.83653 795.316 0.805306 801.662 0.805306C808.008 0.805306 813.799 1.83653 819.034 3.89896C824.27 5.88208 828.751 8.77743 832.48 12.585C836.287 16.3926 839.183 20.9538 841.166 26.2685C843.228 31.504 844.259 37.374 844.259 43.8786C844.259 50.4625 843.228 56.4119 841.166 61.7267C839.183 67.0414 836.287 71.6422 832.48 75.5291C828.751 79.3367 824.27 82.2717 819.034 84.3342C813.799 86.3173 808.008 87.3089 801.662 87.3089ZM801.662 68.9849C805.866 68.9849 809.436 67.9933 812.371 66.0102C815.306 64.0271 817.567 61.1714 819.153 57.4431C820.74 53.7149 821.533 49.233 821.533 43.9976C821.533 38.7622 820.74 34.2803 819.153 30.5521C817.646 26.8238 815.385 24.0078 812.371 22.104C809.436 20.1209 805.866 19.1293 801.662 19.1293C797.537 19.1293 793.968 20.1209 790.953 22.104C788.018 24.0078 785.758 26.8238 784.171 30.5521C782.585 34.2803 781.791 38.7622 781.791 43.9976C781.791 49.233 782.545 53.7149 784.052 57.4431C785.639 61.1714 787.939 64.0271 790.953 66.0102C793.968 67.9933 797.537 68.9849 801.662 68.9849Z" fill="#F1F2F2"/>
<path d="M30.4126 86L-50.533 115.049L-30.0951 172H30.4126V86ZM0.308857 2.11416V-83.8858H-121.924L-80.6367 31.1627L0.308857 2.11416ZM22.6784 2.11416L104.265 -25.0814L84.6637 -83.8858H22.6784V2.11416ZM42.9062 62.7975V148.798H162.225L124.493 35.6019L42.9062 62.7975ZM37.3138 62.7975L-43.6328 33.752L-84.9138 148.798H37.3138V62.7975ZM59.0884 2.11416V-83.8858H-1.4216L-21.8582 -26.9314L59.0884 2.11416ZM74.5567 2.11416L156.047 -25.3689L136.312 -83.8858H74.5567V2.11416ZM95.0225 62.7975V148.798H214.786L176.513 35.3145L95.0225 62.7975ZM90.263 62.7975L8.8698 35.0281L-29.9457 148.798H90.263V62.7975ZM110.967 2.11416V-83.8858H49.4404L29.5735 -25.6553L110.967 2.11416ZM132.027 2.11416L212.9 31.3659L254.587 -83.8858H132.027V2.11416ZM101.686 86V172H162.032L182.558 115.252L101.686 86ZM84.1947 86L3.15309 114.779L23.4732 172H84.1947V86ZM64.7998 31.385V-54.615H-57.0023L-16.2418 60.1644L64.7998 31.385ZM67.7745 31.385L148.592 60.789L190.58 -54.615H67.7745V31.385ZM47.9037 86V172H108.129L128.721 115.404L47.9037 86ZM30.4126 86L111.358 56.9515L81.2544 -26.9344L0.308857 2.11416L-80.6367 31.1627L-50.533 115.049L30.4126 86ZM0.308857 2.11416V88.1142H22.6784V2.11416V-83.8858H0.308857V2.11416ZM22.6784 2.11416L-58.9083 29.3097L-38.6806 89.9931L42.9062 62.7975L124.493 35.6019L104.265 -25.0814L22.6784 2.11416ZM42.9062 62.7975V-23.2025H37.3138V62.7975V148.798H42.9062V62.7975ZM37.3138 62.7975L118.26 91.8431L140.035 31.1597L59.0884 2.11416L-21.8582 -26.9314L-43.6328 33.752L37.3138 62.7975ZM59.0884 2.11416V88.1142H74.5567V2.11416V-83.8858H59.0884V2.11416ZM74.5567 2.11416L-6.93364 29.5972L13.5321 90.2806L95.0225 62.7975L176.513 35.3145L156.047 -25.3689L74.5567 2.11416ZM95.0225 62.7975V-23.2025H90.263V62.7975V148.798H95.0225V62.7975ZM90.263 62.7975L171.656 90.567L192.36 29.8836L110.967 2.11416L29.5735 -25.6553L8.8698 35.0281L90.263 62.7975ZM110.967 2.11416V88.1142H132.027V2.11416V-83.8858H110.967V2.11416ZM132.027 2.11416L51.1551 -27.1375L20.8134 56.7483L101.686 86L182.558 115.252L212.9 31.3659L132.027 2.11416ZM101.686 86V0H84.1947V86V172H101.686V86ZM84.1947 86L165.236 57.2205L145.841 2.60549L64.7998 31.385L-16.2418 60.1644L3.15309 114.779L84.1947 86ZM64.7998 31.385V117.385H67.7745V31.385V-54.615H64.7998V31.385ZM67.7745 31.385L-13.0426 1.98093L-32.9134 56.596L47.9037 86L128.721 115.404L148.592 60.789L67.7745 31.385ZM47.9037 86V0H30.4126V86V172H47.9037V86ZM140.824 86H54.8241V172H140.824V86ZM140.824 2.11416V-83.8858H54.8241V2.11416H140.824ZM162.718 2.11416H248.718V-83.8858H162.718V2.11416ZM162.718 34.4786H76.7177V120.479H162.718V34.4786ZM197.343 34.4786V120.479H283.343V34.4786H197.343ZM197.343 2.11416V-83.8858H111.343V2.11416H197.343ZM219.118 2.11416H305.118V-83.8858H219.118V2.11416ZM219.118 86V172H305.118V86H219.118ZM197.343 86H111.343V172H197.343V86ZM197.343 52.4457H283.343V-33.5543H197.343V52.4457ZM162.718 52.4457V-33.5543H76.7177V52.4457H162.718ZM162.718 86V172H248.718V86H162.718ZM140.824 86H226.824V2.11416H140.824H54.8241V86H140.824ZM140.824 2.11416V88.1142H162.718V2.11416V-83.8858H140.824V2.11416ZM162.718 2.11416H76.7177V34.4786H162.718H248.718V2.11416H162.718ZM162.718 34.4786V120.479H197.343V34.4786V-51.5214H162.718V34.4786ZM197.343 34.4786H283.343V2.11416H197.343H111.343V34.4786H197.343ZM197.343 2.11416V88.1142H219.118V2.11416V-83.8858H197.343V2.11416ZM219.118 2.11416H133.118V86H219.118H305.118V2.11416H219.118ZM219.118 86V0H197.343V86V172H219.118V86ZM197.343 86H283.343V52.4457H197.343H111.343V86H197.343ZM197.343 52.4457V-33.5543H162.718V52.4457V138.446H197.343V52.4457ZM162.718 52.4457H76.7177V86H162.718H248.718V52.4457H162.718ZM162.718 86V0H140.824V86V172H162.718V86ZM224.25 86L146.36 49.5412L89.0393 172H224.25V86ZM263.516 2.11416V-83.8858H208.816L185.626 -34.3447L263.516 2.11416ZM280.769 2.11416L358.658 -34.3447L335.469 -83.8858H280.769V2.11416ZM320.034 86V172H455.245L397.924 49.5412L320.034 86ZM298.141 86L219.073 119.828L241.394 172H298.141V86ZM288.265 62.9165L338.907 -6.59182L86.2227 -190.69L209.197 96.7444L288.265 62.9165ZM296.594 68.9849V154.985H560.679L347.236 -0.523479L296.594 68.9849ZM247.571 68.9849L197.399 -0.863029L-19.5658 154.985H247.571V68.9849ZM256.019 62.9165L335.087 96.7444L456.461 -186.95L205.847 -6.93137L256.019 62.9165ZM246.143 86V172H302.89L325.211 119.828L246.143 86ZM271.964 24.9597V-61.0403H214.742L192.638 -8.25955L271.964 24.9597ZM258.161 57.9191L183.876 101.252L270.828 250.313L337.486 91.1383L258.161 57.9191ZM254.829 52.2077V-33.7923H105.1L180.544 95.5406L254.829 52.2077ZM289.455 52.2077L363.74 95.5406L439.184 -33.7923H289.455V52.2077ZM286.123 57.9191L206.9 91.3814L273.789 249.742L360.408 101.252L286.123 57.9191ZM272.202 24.9597L351.424 -8.50271L329.234 -61.0403H272.202V24.9597ZM224.25 86L302.139 122.459L341.405 38.573L263.516 2.11416L185.626 -34.3447L146.36 49.5412L224.25 86ZM263.516 2.11416V88.1142H280.769V2.11416V-83.8858H263.516V2.11416ZM280.769 2.11416L202.879 38.573L242.145 122.459L320.034 86L397.924 49.5412L358.658 -34.3447L280.769 2.11416ZM320.034 86V0H298.141V86V172H320.034V86ZM298.141 86L377.208 52.1721L367.332 29.0887L288.265 62.9165L209.197 96.7444L219.073 119.828L298.141 86ZM288.265 62.9165L237.623 132.425L245.952 138.493L296.594 68.9849L347.236 -0.523479L338.907 -6.59182L288.265 62.9165ZM296.594 68.9849V-17.0151H247.571V68.9849V154.985H296.594V68.9849ZM247.571 68.9849L297.744 138.833L306.192 132.764L256.019 62.9165L205.847 -6.93137L197.399 -0.863029L247.571 68.9849ZM256.019 62.9165L176.952 29.0887L167.076 52.1721L246.143 86L325.211 119.828L335.087 96.7444L256.019 62.9165ZM246.143 86V0H224.25V86V172H246.143V86ZM271.964 24.9597L192.638 -8.25955L178.836 24.6999L258.161 57.9191L337.486 91.1383L351.289 58.1789L271.964 24.9597ZM258.161 57.9191L332.446 14.5862L329.114 8.8748L254.829 52.2077L180.544 95.5406L183.876 101.252L258.161 57.9191ZM254.829 52.2077V138.208H289.455V52.2077V-33.7923H254.829V52.2077ZM289.455 52.2077L215.17 8.87478L211.838 14.5862L286.123 57.9191L360.408 101.252L363.74 95.5406L289.455 52.2077ZM286.123 57.9191L365.346 24.4567L351.424 -8.50271L272.202 24.9597L192.979 58.4221L206.9 91.3814L286.123 57.9191ZM272.202 24.9597V-61.0403H271.964V24.9597V110.96H272.202V24.9597ZM335.454 86H249.454V172H335.454V86ZM335.454 19.9622H421.454V-66.0378H335.454V19.9622ZM308.801 19.9622H222.801V105.962H308.801V19.9622ZM308.801 2.11416V-83.8858H222.801V2.11416H308.801ZM384.001 2.11416H470.001V-83.8858H384.001V2.11416ZM384.001 19.9622V105.962H470.001V19.9622H384.001ZM357.348 19.9622V-66.0378H271.348V19.9622H357.348ZM357.348 86V172H443.348V86H357.348ZM335.454 86H421.454V19.9622H335.454H249.454V86H335.454ZM335.454 19.9622V-66.0378H308.801V19.9622V105.962H335.454V19.9622ZM308.801 19.9622H394.801V2.11416H308.801H222.801V19.9622H308.801ZM308.801 2.11416V88.1142H384.001V2.11416V-83.8858H308.801V2.11416ZM384.001 2.11416H298.001V19.9622H384.001H470.001V2.11416H384.001ZM384.001 19.9622V-66.0378H357.348V19.9622V105.962H384.001V19.9622ZM357.348 19.9622H271.348V86H357.348H443.348V19.9622H357.348ZM357.348 86V0H335.454V86V172H357.348V86ZM450.121 86L369.175 115.049L389.613 172H450.121V86ZM420.017 2.11416V-83.8858H297.784L339.071 31.1627L420.017 2.11416ZM442.386 2.11416L523.973 -25.0814L504.372 -83.8858H442.386V2.11416ZM462.614 62.7975V148.798H581.933L544.201 35.6019L462.614 62.7975ZM457.022 62.7975L376.075 33.752L334.794 148.798H457.022V62.7975ZM478.796 2.11416V-83.8858H418.286L397.85 -26.9314L478.796 2.11416ZM494.265 2.11416L575.755 -25.3689L556.02 -83.8858H494.265V2.11416ZM514.731 62.7975V148.798H634.494L596.221 35.3145L514.731 62.7975ZM509.971 62.7975L428.578 35.0281L389.762 148.798H509.971V62.7975ZM530.675 2.11416V-83.8858H469.148L449.282 -25.6553L530.675 2.11416ZM551.736 2.11416L632.608 31.3659L674.295 -83.8858H551.736V2.11416ZM521.394 86V172H581.74L602.266 115.252L521.394 86ZM503.903 86L422.861 114.779L443.181 172H503.903V86ZM484.508 31.385V-54.615H362.706L403.466 60.1644L484.508 31.385ZM487.483 31.385L568.3 60.789L610.288 -54.615H487.483V31.385ZM467.612 86V172H527.837L548.429 115.404L467.612 86ZM450.121 86L531.066 56.9515L500.962 -26.9344L420.017 2.11416L339.071 31.1627L369.175 115.049L450.121 86ZM420.017 2.11416V88.1142H442.386V2.11416V-83.8858H420.017V2.11416ZM442.386 2.11416L360.8 29.3097L381.027 89.9931L462.614 62.7975L544.201 35.6019L523.973 -25.0814L442.386 2.11416ZM462.614 62.7975V-23.2025H457.022V62.7975V148.798H462.614V62.7975ZM457.022 62.7975L537.969 91.8431L559.743 31.1597L478.796 2.11416L397.85 -26.9314L376.075 33.752L457.022 62.7975ZM478.796 2.11416V88.1142H494.265V2.11416V-83.8858H478.796V2.11416ZM494.265 2.11416L412.774 29.5972L433.24 90.2806L514.731 62.7975L596.221 35.3145L575.755 -25.3689L494.265 2.11416ZM514.731 62.7975V-23.2025H509.971V62.7975V148.798H514.731V62.7975ZM509.971 62.7975L591.364 90.567L612.068 29.8836L530.675 2.11416L449.282 -25.6553L428.578 35.0281L509.971 62.7975ZM530.675 2.11416V88.1142H551.736V2.11416V-83.8858H530.675V2.11416ZM551.736 2.11416L470.863 -27.1375L440.521 56.7483L521.394 86L602.266 115.252L632.608 31.3659L551.736 2.11416ZM521.394 86V0H503.903V86V172H521.394V86ZM503.903 86L584.944 57.2205L565.549 2.60549L484.508 31.385L403.466 60.1644L422.861 114.779L503.903 86ZM484.508 31.385V117.385H487.483V31.385V-54.615H484.508V31.385ZM487.483 31.385L406.665 1.98093L386.795 56.596L467.612 86L548.429 115.404L568.3 60.789L487.483 31.385ZM467.612 86V0H450.121V86V172H467.612V86ZM560.532 86H474.532V172H560.532V86ZM560.532 2.11416V-83.8858H474.532V2.11416H560.532ZM619.788 2.11416H705.788V-83.8858H619.788V2.11416ZM619.788 19.0103V105.01H705.788V19.0103H619.788ZM581.474 19.0103V-66.9897H495.474V19.0103H581.474ZM581.474 34.9546H495.474V120.955H581.474V34.9546ZM617.051 34.9546H703.051V-51.0454H617.051V34.9546ZM617.051 51.8507V137.851H703.051V51.8507H617.051ZM581.474 51.8507V-34.1493H495.474V51.8507H581.474ZM581.474 69.1038H495.474V155.104H581.474V69.1038ZM619.788 69.1038H705.788V-16.8962H619.788V69.1038ZM619.788 86V172H705.788V86H619.788ZM560.532 86H646.532V2.11416H560.532H474.532V86H560.532ZM560.532 2.11416V88.1142H619.788V2.11416V-83.8858H560.532V2.11416ZM619.788 2.11416H533.788V19.0103H619.788H705.788V2.11416H619.788ZM619.788 19.0103V-66.9897H581.474V19.0103V105.01H619.788V19.0103ZM581.474 19.0103H495.474V34.9546H581.474H667.474V19.0103H581.474ZM581.474 34.9546V120.955H617.051V34.9546V-51.0454H581.474V34.9546ZM617.051 34.9546H531.051V51.8507H617.051H703.051V34.9546H617.051ZM617.051 51.8507V-34.1493H581.474V51.8507V137.851H617.051V51.8507ZM581.474 51.8507H495.474V69.1038H581.474H667.474V51.8507H581.474ZM581.474 69.1038V155.104H619.788V69.1038V-16.8962H581.474V69.1038ZM619.788 69.1038H533.788V86H619.788H705.788V69.1038H619.788ZM619.788 86V0H560.532V86V172H619.788V86ZM667.667 86H581.667V172H667.667V86ZM667.667 2.11416V-83.8858H581.667V2.11416H667.667ZM727.16 7.11161L689.421 84.3884L689.785 84.5664L690.151 84.7409L727.16 7.11161ZM742.748 21.3901L668.021 63.9561L668.341 64.5189L668.67 65.0768L742.748 21.3901ZM742.748 66.7241L668.429 23.4497L668.223 23.8029L668.021 24.1581L742.748 66.7241ZM727.16 81.1215L764.17 158.751L764.536 158.576L764.9 158.398L727.16 81.1215ZM689.561 68.2709H603.561V154.271H689.561V68.2709ZM719.426 62.3216L658.615 1.5104L658.615 1.51042L719.426 62.3216ZM719.426 25.7926L659.22 87.2028L659.53 87.5068L659.843 87.8076L719.426 25.7926ZM689.561 19.8432V-66.1568H603.561V19.8432H689.561ZM667.667 86H753.667V2.11416H667.667H581.667V86H667.667ZM667.667 2.11416V88.1142H702.411V2.11416V-83.8858H667.667V2.11416ZM702.411 2.11416V88.1142C702.364 88.1142 701.073 88.1141 698.835 87.6621C696.55 87.2009 693.257 86.2619 689.421 84.3884L727.16 7.11161L764.9 -70.1652C743.553 -80.5907 721.686 -83.8858 702.411 -83.8858V2.11416ZM727.16 7.11161L690.151 84.7409C686.427 82.9654 682.209 80.315 678.083 76.5358C673.93 72.731 670.558 68.4103 668.021 63.9561L742.748 21.3901L817.475 -21.176C804.778 -43.4663 786.045 -60.0888 764.17 -70.5177L727.16 7.11161ZM742.748 21.3901L668.67 65.0768C662.862 55.2279 662.221 46.8643 662.221 43.9976H748.221H834.221C834.221 23.3621 829.931 -0.0730896 816.825 -22.2967L742.748 21.3901ZM748.221 43.9976H662.221C662.221 41.0851 662.878 32.9824 668.429 23.4497L742.748 66.7241L817.067 109.999C829.915 87.9326 834.221 64.6788 834.221 43.9976H748.221ZM742.748 66.7241L668.021 24.1581C673.474 14.5836 681.569 7.67908 689.421 3.84472L727.16 81.1215L764.9 158.398C786.395 147.901 804.882 131.398 817.475 109.29L742.748 66.7241ZM727.16 81.1215L690.151 3.49222C697.658 -0.0868378 702.754 0 702.411 0V86V172C721.424 172 743.019 168.835 764.17 158.751L727.16 81.1215ZM702.411 86V0H667.667V86V172H702.411V86ZM689.561 68.2709V154.271H700.983V68.2709V-17.7291H689.561V68.2709ZM700.983 68.2709V154.271C721.147 154.271 753.761 149.609 780.237 123.133L719.426 62.3216L658.615 1.51042C677.159 -17.0336 697.478 -17.7291 700.983 -17.7291V68.2709ZM719.426 62.3216L780.237 123.133C806.24 97.1298 811.495 65.1412 811.495 43.9976H725.495H639.495C639.495 39.1949 640.703 19.4223 658.615 1.5104L719.426 62.3216ZM725.495 43.9976H811.495C811.495 23.3787 806.509 -9.8013 779.009 -36.2224L719.426 25.7926L659.843 87.8076C640.435 69.1603 639.495 48.1169 639.495 43.9976H725.495ZM719.426 25.7926L779.632 -35.6177C753.441 -61.2954 721.51 -66.1568 700.983 -66.1568V19.8432V105.843C696.956 105.843 677.32 104.948 659.22 87.2028L719.426 25.7926ZM700.983 19.8432V-66.1568H689.561V19.8432V105.843H700.983V19.8432ZM689.561 19.8432H603.561V68.2709H689.561H775.561V19.8432H689.561ZM784.29 84.2152L815.811 4.20008L815.811 4.20007L784.29 84.2152ZM770.726 75.4102L708.661 134.942L709.281 135.588L709.914 136.221L770.726 75.4102ZM762.039 61.6077L681.466 91.6724L681.662 92.1977L681.865 92.7203L762.039 61.6077ZM762.039 26.2685L681.865 -4.84411L681.662 -4.32149L681.466 -3.79626L762.039 26.2685ZM770.726 12.585L709.914 -48.2262L709.594 -47.9061L709.278 -47.5827L770.726 12.585ZM784.29 3.89896L814.754 84.3227L815.284 84.1219L815.811 83.9141L784.29 3.89896ZM819.034 3.89896L787.513 83.9141L788.041 84.1219L788.571 84.3227L819.034 3.89896ZM832.48 12.585L771.032 72.7528L771.349 73.0761L771.669 73.3962L832.48 12.585ZM841.166 26.2685L760.592 56.3334L760.865 57.064L761.151 57.7896L841.166 26.2685ZM841.166 61.7267L760.991 30.6141L760.788 31.1367L760.592 31.6618L841.166 61.7267ZM832.48 75.5291L771.045 15.3481L771.038 15.3548L771.032 15.3614L832.48 75.5291ZM819.034 84.3342L849.498 164.758L850.028 164.557L850.555 164.349L819.034 84.3342ZM812.371 66.0102L764.223 -5.24848V-5.24846L812.371 66.0102ZM819.153 57.4431L740.02 23.7693L740.02 23.7694L819.153 57.4431ZM819.153 30.5521L739.422 62.7839L739.714 63.5076L740.02 64.2259L819.153 30.5521ZM812.371 22.104L764.223 93.3626L765.324 94.1065L766.448 94.816L812.371 22.104ZM790.953 22.104L837.754 94.2547L837.987 94.103L838.22 93.9498L790.953 22.104ZM784.171 30.5521L705.038 -3.12171V-3.12167L784.171 30.5521ZM784.052 57.4431L704.321 89.675L704.613 90.3986L704.919 91.1169L784.052 57.4431ZM790.953 66.0102L743.686 137.856V137.856L790.953 66.0102ZM801.662 87.3089V1.30886C804.735 1.30886 809.807 1.83486 815.811 4.20008L784.29 84.2152L752.769 164.23C769.244 170.72 785.897 173.309 801.662 173.309V87.3089ZM784.29 84.2152L815.811 4.20007C821.049 6.26341 826.627 9.68904 831.537 14.599L770.726 75.4102L709.914 136.221C722.439 148.746 737.06 158.042 752.769 164.23L784.29 84.2152ZM770.726 75.4102L832.79 15.8788C837.367 20.65 840.417 25.8629 842.214 30.495L762.039 61.6077L681.865 92.7203C687.787 107.982 696.628 122.396 708.661 134.942L770.726 75.4102ZM762.039 61.6077L842.613 31.5429C844.662 37.0331 845.065 41.5067 845.065 43.9976H759.065H673.065C673.065 59.3391 675.451 75.5527 681.466 91.6724L762.039 61.6077ZM759.065 43.9976H845.065C845.065 46.2723 844.704 50.7306 842.613 56.3333L762.039 26.2685L681.466 -3.79626C675.409 12.436 673.065 28.7136 673.065 43.9976H759.065ZM762.039 26.2685L842.214 57.3812C840.363 62.1514 837.147 67.6737 832.173 72.7527L770.726 12.585L709.278 -47.5827C696.848 -34.8885 687.841 -20.2438 681.865 -4.84411L762.039 26.2685ZM770.726 12.585L831.537 73.3962C826.388 78.5448 820.446 82.1665 814.754 84.3227L784.29 3.89896L753.826 -76.5247C737.663 -70.4024 722.678 -60.9899 709.914 -48.2262L770.726 12.585ZM784.29 3.89896L815.811 83.9141C809.807 86.2793 804.735 86.8053 801.662 86.8053V0.805305V-85.1947C785.897 -85.1947 769.244 -82.6063 752.769 -76.1162L784.29 3.89896ZM801.662 0.805305V86.8053C798.589 86.8053 793.517 86.2793 787.513 83.9141L819.034 3.89896L850.555 -76.1162C834.08 -82.6063 817.427 -85.1947 801.662 -85.1947V0.805305ZM819.034 3.89896L788.571 84.3227C782.734 82.1119 776.48 78.3167 771.032 72.7528L832.48 12.585L893.928 -47.5827C881.023 -60.7618 865.805 -70.3477 849.498 -76.5247L819.034 3.89896ZM832.48 12.585L771.669 73.3962C766.298 68.0256 762.682 61.9343 760.592 56.3334L841.166 26.2685L921.739 -3.79631C915.683 -20.0267 906.277 -35.2404 893.291 -48.2261L832.48 12.585ZM841.166 26.2685L761.151 57.7896C758.692 51.549 758.259 46.5025 758.259 43.8786H844.259H930.259C930.259 28.2455 927.764 11.4589 921.181 -5.25254L841.166 26.2685ZM844.259 43.8786H758.259C758.259 41.4469 758.656 36.6314 760.991 30.6141L841.166 61.7267L921.341 92.8392C927.801 76.1924 930.259 59.4782 930.259 43.8786H844.259ZM841.166 61.7267L760.592 31.6618C762.63 26.2005 766.079 20.4176 771.045 15.3481L832.48 75.5291L893.915 135.71C906.496 122.867 915.735 107.882 921.739 91.7915L841.166 61.7267ZM832.48 75.5291L771.032 15.3614C776.241 10.041 782.13 6.43979 787.513 4.31905L819.034 84.3342L850.555 164.349C866.41 158.104 881.262 148.632 893.928 135.697L832.48 75.5291ZM819.034 84.3342L788.571 3.91047C794.278 1.74847 798.977 1.30886 801.662 1.30886V87.3089V173.309C817.039 173.309 833.319 170.886 849.498 164.758L819.034 84.3342ZM801.662 68.9849V154.985C819.756 154.985 840.877 150.541 860.519 137.269L812.371 66.0102L764.223 -5.24846C777.995 -14.5539 791.977 -17.0151 801.662 -17.0151V68.9849ZM812.371 66.0102L860.519 137.269C879.085 124.724 891.168 107.845 898.286 91.1168L819.153 57.4431L740.02 23.7694C743.965 14.4977 751.527 3.33037 764.223 -5.24848L812.371 66.0102ZM819.153 57.4431L898.286 91.1169C905.519 74.121 907.533 57.5711 907.533 43.9976H821.533H735.533C735.533 40.8949 735.961 33.3087 740.02 23.7693L819.153 57.4431ZM821.533 43.9976H907.533C907.533 30.424 905.519 13.8742 898.286 -3.12175L819.153 30.5521L740.02 64.2259C735.961 54.6864 735.533 47.1003 735.533 43.9976H821.533ZM819.153 30.5521L898.885 -1.67981C891.527 -19.8812 878.453 -37.8763 858.294 -50.6081L812.371 22.104L766.448 94.816C752.318 85.8919 743.765 73.5287 739.422 62.7839L819.153 30.5521ZM812.371 22.104L860.519 -49.1546C840.877 -62.4263 819.756 -66.8707 801.662 -66.8707V19.1293V105.129C791.977 105.129 777.995 102.668 764.223 93.3626L812.371 22.104ZM801.662 19.1293V-66.8707C783.212 -66.8707 762.669 -62.2306 743.686 -49.7419L790.953 22.104L838.22 93.9498C825.266 102.472 811.863 105.129 801.662 105.129V19.1293ZM790.953 22.104L744.153 -50.0467C724.68 -37.4156 712.241 -20.0484 705.038 -3.12171L784.171 30.5521L863.304 64.2258C859.274 73.696 851.357 85.4311 837.754 94.2547L790.953 22.104ZM784.171 30.5521L705.038 -3.12167C697.805 13.8743 695.791 30.4241 695.791 43.9976H781.791H867.791C867.791 47.1003 867.364 54.6864 863.304 64.2258L784.171 30.5521ZM781.791 43.9976H695.791C695.791 57.1059 697.63 73.1246 704.321 89.675L784.052 57.4431L863.784 25.2113C867.46 34.3051 867.791 41.3601 867.791 43.9976H781.791ZM784.052 57.4431L704.919 91.1169C712.293 108.446 724.824 125.446 743.686 137.856L790.953 66.0102L838.22 -5.83569C851.054 2.60766 858.984 13.8964 863.185 23.7694L784.052 57.4431ZM790.953 66.0102L743.686 137.856C762.669 150.345 783.212 154.985 801.662 154.985V68.9849V-17.0151C811.863 -17.0151 825.266 -14.3582 838.22 -5.83569L790.953 66.0102Z" fill="#F1F2F2" mask="url(#path-1-inside-1_2_5)"/>
</svg>
