<svg width="203" height="48" viewBox="0 0 203 48" fill="none" xmlns="http://www.w3.org/2000/svg">
<path d="M203 25.0047C203 25.7888 202.709 26.2299 202.03 26.2299H186.213V26.3769C186.213 29.2195 187.377 32.6011 192.035 32.6011C195.577 32.6011 198.924 32.3071 200.962 32.111C201.011 32.111 201.059 32.111 201.108 32.111C201.593 32.111 201.981 32.3561 201.981 32.8462V36.0808C201.981 36.865 201.836 37.208 200.962 37.355C197.809 37.9432 195.916 38.1882 191.55 38.1882C186.698 38.1882 179.809 35.5417 179.809 25.8868V22.2602C179.809 14.6147 184.03 9.81177 191.453 9.81177C198.925 9.81177 203 14.9578 203 22.2602V25.0047ZM196.547 21.623V21.427C196.547 17.6043 194.461 15.3988 191.453 15.3988C188.445 15.3988 186.261 17.5553 186.261 21.427V21.623H196.547Z" fill="white"/>
<path d="M176.018 36.2768C176.018 37.061 175.824 37.355 174.999 37.5511C173.883 37.8451 171.7 38.1882 168.741 38.1882C162.433 38.1882 157.679 34.2675 157.679 26.2789V21.7211C157.679 13.7325 162.433 9.81177 168.741 9.81177C171.7 9.81177 173.883 10.1548 174.999 10.4489C175.824 10.6449 176.018 10.939 176.018 11.7231V14.9087C176.018 15.3988 175.63 15.6439 175.145 15.6439C175.096 15.6439 175.048 15.6439 174.999 15.6439C173.059 15.3988 171.894 15.3008 168.741 15.3008C166.46 15.3008 164.083 16.6241 164.083 21.7211V26.2789C164.083 31.3759 166.46 32.6992 168.741 32.6992C171.894 32.6992 173.059 32.6011 174.999 32.3561C175.048 32.3561 175.096 32.3561 175.145 32.3561C175.63 32.3561 176.018 32.6011 176.018 33.0912V36.2768Z" fill="white"/>
<path d="M153.156 25.9849C153.156 32.9932 149.177 38.1882 141.56 38.1882C133.943 38.1882 129.964 32.9932 129.964 25.9849V22.0151C129.964 15.0068 133.943 9.81177 141.56 9.81177C149.177 9.81177 153.156 15.0068 153.156 22.0151V25.9849ZM146.752 25.9849V22.0151C146.752 17.9963 144.956 15.3988 141.56 15.3988C138.164 15.3988 136.369 17.9963 136.369 22.0151V25.9849C136.369 30.0036 138.164 32.6011 141.56 32.6011C144.956 32.6011 146.752 30.0036 146.752 25.9849Z" fill="white"/>
<path d="M124.475 35.5907C124.475 36.3259 124.281 36.6199 123.165 36.914C120.157 37.6981 116.518 38.1882 113.413 38.1882C105.602 38.1882 101.817 33.5323 101.817 25.8869V22.1131C101.817 14.4677 105.602 9.81178 113.413 9.81178C114.577 9.81178 116.275 9.9098 118.071 10.1549V1.48019C118.071 0.941085 118.507 0.5 119.041 0.5H123.504C124.038 0.5 124.475 0.941085 124.475 1.48019V35.5907ZM118.071 32.5521V15.4479C116.712 15.2518 114.577 15.1048 113.413 15.1048C109.24 15.1048 108.221 18.0944 108.221 22.1131V25.8869C108.221 29.9056 109.24 32.8952 113.413 32.8952C115.159 32.8952 117.149 32.7482 118.071 32.5521Z" fill="white"/>
<path d="M85.8232 9.81177C93.4404 9.81177 97.4189 15.0067 97.4189 22.0149V25.9846C97.4189 32.993 93.4405 38.1877 85.8232 38.1877C78.206 38.1877 74.2275 32.993 74.2275 25.9846V22.0149C74.2276 15.0067 78.2061 9.81177 85.8232 9.81177ZM83.2588 15.5237C80.7446 15.3463 78.5628 17.2777 78.3857 19.8381C78.2087 22.3985 80.1031 24.6176 82.6172 24.7952C82.6945 24.8006 82.772 24.8044 82.8486 24.8059C82.9498 24.8079 83.0509 24.8191 83.1475 24.8499C83.9962 25.1207 84.8435 25.7862 84.6689 27.1975L84.6699 27.1985H84.6709C84.6663 27.2453 84.6624 27.2928 84.6592 27.3401C84.4824 29.9004 86.3776 32.1197 88.8916 32.2971C91.4056 32.4743 93.5876 30.542 93.7646 27.9817C93.9415 25.4214 92.0463 23.2021 89.5322 23.0247C89.12 22.9956 88.6935 22.9931 88.3291 22.7952C88.1116 22.6769 87.8963 22.517 87.7197 22.3088C87.3085 21.8239 87.446 21.1202 87.4902 20.4807C87.6673 17.9203 85.7729 15.7012 83.2588 15.5237Z" fill="white"/>
<path d="M71.0217 36.963C71.0217 37.4531 70.7306 37.7472 70.0998 37.8452C68.9354 38.0412 67.868 38.1882 66.8006 38.1882C61.3182 38.1882 59.0864 36.963 59.0864 30.3957V15.0068L54.5257 14.3207C53.992 14.2226 53.5554 13.8796 53.5554 13.3405V11.1351C53.5554 10.596 53.992 10.1549 54.5257 10.1549H59.0864V6.1361C59.0864 5.597 59.523 5.25393 60.0567 5.15592L64.5688 4.37177C64.6174 4.37177 64.7144 4.37177 64.7629 4.37177C65.1996 4.37177 65.5392 4.61681 65.5392 5.10691V10.1549H69.9058C70.4395 10.1549 70.8761 10.596 70.8761 11.1351V14.0266C70.8761 14.5657 70.4395 15.0068 69.9058 15.0068H65.5392V30.3957C65.5392 32.8462 65.6847 33.1403 67.4314 33.1403H70.0028C70.6335 33.1403 71.0217 33.3853 71.0217 33.8754V36.963Z" fill="white"/>
<path d="M51.3422 25.8868C51.3422 33.5323 47.5578 38.1882 39.7465 38.1882C38.5821 38.1882 36.884 38.0902 35.0888 37.8451V46.5198C35.0888 47.0589 34.6522 47.5 34.1185 47.5H29.6549C29.1212 47.5 28.6845 47.0589 28.6845 46.5198V12.4093C28.6845 11.6741 28.8786 11.3801 29.9945 11.086C33.0026 10.3019 36.6414 9.81177 39.7465 9.81177C47.5578 9.81177 51.3422 14.4677 51.3422 22.1131V25.8868ZM44.9379 25.8868V22.1131C44.9379 18.0944 43.919 15.1048 39.7465 15.1048C37.9999 15.1048 36.0107 15.2518 35.0888 15.4478V32.5521C36.4473 32.7482 38.5821 32.8952 39.7465 32.8952C43.919 32.8952 44.9379 29.9056 44.9379 25.8868Z" fill="white"/>
<path d="M23.1914 25.9849C23.1914 32.9932 19.2129 38.1882 11.5957 38.1882C3.97844 38.1882 0 32.9932 0 25.9849V22.0151C0 15.0068 3.97844 9.81177 11.5957 9.81177C19.2129 9.81177 23.1914 15.0068 23.1914 22.0151V25.9849ZM16.7871 25.9849V22.0151C16.7871 17.9963 14.9919 15.3988 11.5957 15.3988C8.19946 15.3988 6.40431 17.9963 6.40431 22.0151V25.9849C6.40431 30.0036 8.19946 32.6011 11.5957 32.6011C14.9919 32.6011 16.7871 30.0036 16.7871 25.9849Z" fill="white"/>
</svg>
