<svg width="170" height="88" viewBox="0 0 170 88" fill="none" xmlns="http://www.w3.org/2000/svg">
<g opacity="0.5">
<path opacity="0.5" d="M11.1338 75.5433C4.45657 68.147 1.11798 57.4491 1.11798 43.4495C1.11798 29.69 4.4808 19.1116 11.2065 11.7137C17.9321 4.31583 27.5852 0.616896 40.1655 0.617676C52.744 0.617676 62.397 4.31661 69.1246 11.7137C75.8522 19.1108 79.215 29.6896 79.2131 43.4506C79.2131 57.4502 75.8744 68.1481 69.1971 75.5445C62.5198 82.9408 52.8427 86.6391 40.1655 86.6399C27.4874 86.6391 17.8102 82.9404 11.1338 75.5433ZM50.1814 63.8464C52.2136 59.7136 53.2298 52.9131 53.2298 43.4449C53.2298 34.1389 52.2136 27.4377 50.1814 23.3415C48.1492 19.2452 44.8106 17.1972 40.1655 17.1972C35.5167 17.1972 32.178 19.2452 30.1496 23.3415C28.1212 27.4377 27.1051 34.1407 27.1013 43.4506C27.1013 52.9165 28.1174 59.7169 30.1496 63.8522C32.1818 67.9874 35.5205 70.0542 40.1655 70.0518C44.8106 70.0542 48.1492 67.987 50.1814 63.851V63.8464Z" stroke="#707070" stroke-miterlimit="10"/>
<path opacity="0.5" d="M168.629 54.6643V71.3678H155.275V85.5594H129.291V71.3615H88.0663V55.1475L133.936 1.45898H155.275V54.67L168.629 54.6643ZM111.872 54.6643H129.291V34.024L111.872 54.6643Z" stroke="#707070" stroke-miterlimit="10"/>
</g>
</svg>
