<svg width="933" height="213" viewBox="0 0 933 213" fill="none" xmlns="http://www.w3.org/2000/svg">
<path d="M125.581 3.38184H156.973V209.557H121.599V101.352L91.529 175.341H65.4442L35.5961 103.107L35.3744 209.557H0V3.38184H32.0586L78.9289 120.652L125.581 3.38184Z" fill="#F1F2F2"/>
<path d="M185.715 209.557V3.38184H226.397V209.557H185.715Z" fill="#F1F2F2"/>
<path d="M276.584 206.048C265.232 201.952 256.02 196.493 248.949 189.672L261.55 151.652C269.043 157.879 277.153 162.702 285.648 165.983C294.046 169.27 302.758 170.944 311.516 170.954C320.36 170.954 327.104 169.345 331.747 166.128C336.389 162.911 338.712 158.378 338.714 152.531C338.714 147.265 336.613 142.976 332.413 139.663C328.212 136.35 320.215 133.036 308.423 129.72C293.832 125.624 282.409 120.75 274.154 115.097C265.9 109.445 260.115 102.816 256.798 95.2107C253.482 87.6062 251.824 78.2476 251.824 67.1346C251.712 54.9326 254.538 42.9998 259.894 33.0638C265.272 23.0241 272.863 15.1283 282.667 9.37629C292.47 3.6243 303.709 0.748362 316.383 0.748362C327.427 0.718322 338.415 2.83545 348.994 7.0319C359.53 11.2284 367.748 16.6392 373.646 23.2644L361.264 61.2824C347.115 48.4156 332.228 41.9818 316.603 41.9808C309.086 41.9808 303.043 43.8813 298.474 47.6821C293.905 51.4829 291.621 56.5033 291.621 62.743C291.515 66.067 292.385 69.3164 294.049 71.8109C295.667 74.1502 298.689 76.4407 303.112 78.6823C309.529 81.6386 316.107 83.9367 322.791 85.5565C336.936 89.6524 348.064 94.5751 356.175 100.324C364.286 106.073 370.034 112.751 373.42 120.356C376.809 127.961 378.504 137.027 378.505 147.554C378.505 167.834 372.609 183.675 360.818 195.077C349.026 206.48 332.444 212.182 311.072 212.185C299.42 212.185 287.821 210.121 276.584 206.048Z" fill="#F1F2F2"/>
<path d="M423.386 206.048C412.033 201.952 402.821 196.493 395.749 189.672L408.351 151.652C415.845 157.879 423.954 162.702 432.449 165.983C440.846 169.269 449.556 170.943 458.312 170.954C467.157 170.954 473.9 169.345 478.543 166.128C483.185 162.911 485.508 158.378 485.51 152.531C485.51 147.265 483.41 142.976 479.209 139.663C475.008 136.35 467.012 133.036 455.219 129.72C440.628 125.624 429.205 120.75 420.95 115.097C412.696 109.445 406.911 102.816 403.595 95.2107C400.278 87.6062 398.62 78.2476 398.62 67.1346C398.508 54.9326 401.334 42.9998 406.69 33.0638C412.068 23.0241 419.659 15.1283 429.462 9.37629C439.264 3.6243 450.504 0.748362 463.179 0.748362C474.223 0.718322 485.211 2.83545 495.79 7.0319C506.326 11.2284 514.544 16.6392 520.442 23.2644L508.06 61.2824C493.911 48.4156 479.024 41.9818 463.4 41.9808C455.882 41.9808 449.839 43.8813 445.27 47.6821C440.701 51.4829 438.417 56.5033 438.417 62.743C438.311 66.067 439.181 69.3164 440.845 71.8109C442.463 74.1502 445.485 76.4407 449.908 78.6823C456.325 81.6385 462.904 83.9367 469.587 85.5565C483.732 89.6524 494.86 94.5751 502.971 100.324C511.082 106.073 516.83 112.751 520.216 120.356C523.605 127.961 525.3 137.027 525.301 147.554C525.301 167.834 519.405 183.675 507.614 195.077C495.822 206.48 479.24 212.182 457.868 212.185C446.218 212.184 434.621 210.12 423.386 206.048Z" fill="#F1F2F2"/>
<path d="M548.298 209.557V3.38184H588.98V209.557H548.298Z" fill="#F1F2F2"/>
<path d="M649.889 199.177C638.312 190.694 628.889 177.873 622.806 162.326C616.466 146.44 613.297 127.773 613.299 106.324C613.3 84.8754 616.469 66.2072 622.806 50.3196C628.875 34.796 638.304 22.0176 649.889 13.6167C661.608 5.04042 675.426 0.751374 691.344 0.749512C707.262 0.747651 721.081 5.0367 732.8 13.6167C744.369 21.9977 753.767 34.7853 759.773 50.3196C766.036 66.2128 769.168 84.881 769.168 106.324C769.168 127.767 765.999 146.434 759.661 162.326C753.577 177.873 744.154 190.694 732.577 199.177C720.858 207.852 707.114 212.19 691.343 212.189C675.426 212.189 661.608 207.852 649.889 199.177ZM718.982 154.431C725.613 143.418 728.929 127.383 728.93 106.324C728.931 85.2654 725.577 69.2782 718.87 58.3626C712.162 47.4441 702.987 41.9849 691.344 41.9849C679.551 41.9849 670.338 47.3946 663.708 58.2144C657.077 69.0342 653.76 85.0709 653.756 106.324C653.756 127.576 657.072 143.66 663.704 154.576C670.337 165.492 679.549 170.951 691.341 170.954C703.133 170.954 712.347 165.446 718.982 154.431Z" fill="#F1F2F2"/>
<path d="M894.305 3.38184H932.332V209.557H902.264L831.073 91.706V209.557H793.266V3.38184H822.892L894.305 121.233V3.38184Z" fill="#F1F2F2"/>
</svg>
